<?xml version="1.0" encoding="utf-8"?>
<!-- Generator: Adobe Illustrator 23.0.1, SVG Export Plug-In . SVG Version: 6.00 Build 0)  -->
<svg version="1.1" id="Capa_1" xmlns="http://www.w3.org/2000/svg" xmlns:xlink="http://www.w3.org/1999/xlink" x="0px" y="0px"
	 viewBox="0 0 512 512" style="enable-background:new 0 0 512 512;" xml:space="preserve">
<style type="text/css">
	.st0{fill:#FFFFFF;}
</style>
<g>
	<path d="M14.6,122.8c33.8-13.3,67.6-26.6,101.4-40c43.3-17.1,86.5-34.3,129.8-51.1c3.5-1.4,8.4-1.8,11.9-0.5
		c77.6,29.9,155.1,60.1,232.6,90.2c1.4,0.6,2.8,1.4,6,3c-161.9,0-321.6,0-481.3,0C15,123.9,14.8,123.3,14.6,122.8z"/>
	<path d="M292.8,300.5c-37.8-0.9-76.1-4.6-111.5-22.6c-7.2-3.7-14.1-8.5-19.9-14.1c-13.3-12.9-13.7-29.4,0.2-41.6
		c9.3-8.2,20.4-15.7,32.1-19.8c66.1-23.4,132.8-23.3,198.9,0.2c11.6,4.1,22.6,11.7,31.9,20c13.5,11.9,13.5,28.8,0,40.8
		c-9.3,8.2-20.5,15-32,19.9C361.2,296.6,327.7,299.6,292.8,300.5z M284.9,259.7c-14.1-0.7-28.2-1.2-42.2-2.2
		c-2.3-0.2-4.4-2.6-6.6-3.9c-8.8-7.4-15-17-14-28.3c1-10.3,5.7-20.3,8.3-28.8c-19.8,12.8-20.6,41.7,0.6,56.2
		c1.3,0.9,3.4,0.5,5.2,0.8c-3.3,0.7-6.8,2.3-10,1.8c-14.7-2.3-29.3-5.1-43.9-7.7c75.8,24,151.5,24.8,226.9-0.8
		c-1.6-0.5-3.2-0.1-4.8,0.2c-21.6,3.5-43.3,6.9-64.9,10.3c-0.5-2-0.5-4.3-1.7-5.8c-13.8-17.1-14.3-34.7-2.1-52.8
		c0.5-0.8,0.9-1.8,1.7-3.5c-16.4,9.8-21.6,31-11.6,46.5c3.7,5.8,9.1,10.4,13.8,15.6c-17.7,0.8-35.4,1.6-53.1,2.3
		c-0.9-1.4-1.5-3-2.6-4.3c-13.7-16.8-14.6-34.6-4.7-53.5c1.7-3.2,3.2-6.4,5.9-11.7c-24.4,22.1-24.6,47.4-2.3,67.2
		C283.4,258.1,284.1,258.9,284.9,259.7z"/>
	<path d="M150.1,479.7c0-3.6,0-7.1,0-11.1c115.8,0,231.2,0,347.2,0c0,3.5,0,7,0,11.1C381.9,479.7,266.3,479.7,150.1,479.7z"/>
	<path d="M150.1,425.1c0-3.9,0-7.4,0-11.5c95.8,0,191.4,0,287.1,0c0,4.1,0,7.6,0,11.5C341.4,425.1,246.1,425.1,150.1,425.1z"/>
	<path d="M467.4,441.6c0,3.7,0,7,0,10.9c-105.6,0-211,0-317.1,0c0-3.4,0-6.9,0-10.9C255.6,441.6,361,441.6,467.4,441.6z"/>
	<path d="M132.7,388.2c0,31.4,0,61.5,0,93.4c-25.6-16.7-50.3-32.8-76-49.6C82.4,417.2,107.1,403,132.7,388.2z"/>
	<path d="M132.4,362.8c-25.8-16.8-50.3-32.8-75.7-49.4c25.6-14.8,50.1-29,75.7-43.8C132.4,300.7,132.4,330.8,132.4,362.8z"/>
	<path d="M132.8,150.6c0,31.6,0,61.7,0,93.6c-25.7-16.7-50.5-32.9-76.1-49.6C82.3,179.9,106.8,165.7,132.8,150.6z"/>
	<path d="M263.7,355.5c-0.1-15.1,10.9-26.3,25.8-26.4c14.9-0.1,26.5,11.2,26.7,25.8c0.2,14.4-11.7,26.5-26.1,26.7
		C275.7,381.8,263.8,370.1,263.7,355.5z"/>
	<path d="M353.9,355.5c-0.1-14.9,11.1-26.3,25.9-26.4c14.9-0.1,26.5,11.1,26.6,25.8c0.1,14.5-11.6,26.5-26,26.7
		C365.9,381.7,354,370,353.9,355.5z"/>
	<path d="M223.6,354.5c-0.1,15-11.2,25.9-26.3,25.8c-14.6-0.1-26.4-12.1-26.2-26.4c0.3-14.3,12.6-26.3,26.8-26.1
		C212.4,327.9,223.7,339.6,223.6,354.5z"/>
	<path class="st0" d="M236.1,253.6c2.2,1.4,4.3,3.8,6.6,4c14.1,1,28.2,1.5,42.2,2.2c0.5-0.1,1-0.1,1.5-0.2
		c17.7-0.8,35.4-1.6,53.1-2.3l-0.1,0.1c21.6-3.4,43.3-6.9,64.9-10.3c1.6-0.3,3.2-0.6,4.8-0.2c-75.4,25.7-151.1,24.9-226.9,0.8
		c14.6,2.6,29.2,5.5,43.9,7.7C229.2,255.8,232.7,254.2,236.1,253.6L236.1,253.6z"/>
	<path class="st0" d="M286.3,259.5c-0.5,0.1-1,0.1-1.5,0.2c-0.8-0.8-1.5-1.7-2.3-2.4c-22.2-19.8-22.1-45.2,2.3-67.2
		c-2.7,5.3-4.2,8.5-5.9,11.7c-9.9,18.8-9,36.7,4.7,53.5C284.8,256.5,285.5,258.1,286.3,259.5z"/>
	<path class="st0" d="M339.4,257.2c-4.6-5.2-10-9.8-13.8-15.6c-10-15.5-4.7-36.7,11.6-46.5c-0.9,1.8-1.2,2.7-1.7,3.5
		c-12.2,18.1-11.8,35.6,2.1,52.8c1.2,1.4,1.2,3.8,1.7,5.8C339.3,257.3,339.4,257.2,339.4,257.2z"/>
	<path class="st0" d="M236.1,253.5c-1.7-0.2-3.9,0.1-5.2-0.8c-21.2-14.5-20.4-43.4-0.6-56.2c-2.6,8.4-7.3,18.4-8.3,28.8
		C221,236.5,227.3,246.1,236.1,253.5C236.1,253.6,236.1,253.5,236.1,253.5z"/>
</g>
</svg>
